<?xml version="1.0" encoding="utf-8" standalone="no"?>
<svg xmlns:dc="http://purl.org/dc/elements/1.1/" xmlns:cc="http://creativecommons.org/ns#" xmlns:rdf="http://www.w3.org/1999/02/22-rdf-syntax-ns#" xmlns:svg="http://www.w3.org/2000/svg" xmlns="http://www.w3.org/2000/svg" xmlns:xlink="http://www.w3.org/1999/xlink" xmlns:sodipodi="http://sodipodi.sourceforge.net/DTD/sodipodi-0.dtd" xmlns:inkscape="http://www.inkscape.org/namespaces/inkscape" version="1.1" id="Layer_1" x="0px" y="0px" width="123px" height="30px" viewBox="0 0 123 30" inkscape:version="0.91 r13725"><metadata id="metadata3541"/><defs id="defs3539"/><g id="g3461"><defs id="defs3463"><polygon id="SVGID_9_" points="-296,-74 -296,-62 -286,-68"/></defs><clipPath id="SVGID_2_"><use xlink:href="#SVGID_9_" overflow="visible" id="use3467"/></clipPath><g clip-path="url(#SVGID_2_)" id="g3469"><defs id="defs3471"><rect id="SVGID_11_" x="-925" y="-228" width="942" height="563"/></defs><clipPath id="SVGID_4_"><use xlink:href="#SVGID_11_" overflow="visible" id="use3475"/></clipPath></g></g><g id="g3477"><defs id="defs3479"><polygon id="SVGID_13_" points="-294,-10 -294,2 -284,-4"/></defs><clipPath id="SVGID_6_"><use xlink:href="#SVGID_13_" overflow="visible" id="use3483"/></clipPath><g clip-path="url(#SVGID_6_)" id="g3485"><defs id="defs3487"><rect id="SVGID_15_" x="-923" y="-164" width="942" height="563"/></defs><clipPath id="SVGID_8_"><use xlink:href="#SVGID_15_" overflow="visible" id="use3491"/></clipPath></g></g><path d="M123,27c0,1.657-1.343,3-3,3H3c-1.657,0-3-1.343-3-3V3c0-1.657,1.343-3,3-3h117c1.657,0,3,1.343,3,3V27z" id="path3493" fill="#009CFF"/><text style="font-style:normal;font-weight:normal;font-size:40px;line-height:125%;font-family:sans-serif;letter-spacing:0px;word-spacing:0px;fill:#000000;fill-opacity:1;stroke:none;stroke-width:1px;stroke-linecap:butt;stroke-linejoin:miter;stroke-opacity:1" x="24.668524" y="20.749304" id="text4361"><tspan sodipodi:role="line" id="tspan4363" x="24.668524" y="20.749304"/></text>
<text style="font-style:normal;font-variant:normal;font-weight:normal;font-stretch:normal;font-size:15px;line-height:125%;font-family:sans-serif;text-align:start;letter-spacing:0px;word-spacing:0px;writing-mode:lr-tb;text-anchor:start;fill:#000000;fill-opacity:1;stroke:none;stroke-width:1px;stroke-linecap:butt;stroke-linejoin:miter;stroke-opacity:1" x="26.153202" y="3.8467968" id="text4377"><tspan sodipodi:role="line" id="tspan4379" x="26.153202" y="3.8467968"/></text>
<text style="font-style:normal;font-variant:normal;font-weight:normal;font-stretch:normal;font-size:12.5px;line-height:125%;font-family:sans-serif;text-align:start;letter-spacing:0px;word-spacing:0px;writing-mode:lr-tb;text-anchor:start;fill:#000000;fill-opacity:1;stroke:none;stroke-width:1px;stroke-linecap:butt;stroke-linejoin:miter;stroke-opacity:1" x="54.933147" y="17.32312" id="text4393"><tspan sodipodi:role="line" id="tspan4395" x="54.933147" y="17.32312"/></text>
<text style="font-style:normal;font-variant:normal;font-weight:normal;font-stretch:normal;font-size:12.5px;line-height:125%;font-family:sans-serif;text-align:start;letter-spacing:0px;word-spacing:0px;writing-mode:lr-tb;text-anchor:start;fill:#f3ffff;fill-opacity:1;stroke:none;stroke-width:1px;stroke-linecap:butt;stroke-linejoin:miter;stroke-opacity:1;" x="23.29805" y="20.406685" id="text4397"><tspan sodipodi:role="line" id="tspan4399" x="23.29805" y="20.406685"/></text>
<text style="font-style:normal;font-variant:normal;font-weight:normal;font-stretch:normal;font-size:12.5px;line-height:125%;font-family:sans-serif;text-align:start;letter-spacing:0px;word-spacing:0px;writing-mode:lr-tb;text-anchor:start;fill:#000000;fill-opacity:1;stroke:none;stroke-width:1px;stroke-linecap:butt;stroke-linejoin:miter;stroke-opacity:1" x="23.412256" y="22.91922" id="text4401"><tspan sodipodi:role="line" id="tspan4403" x="23.412256" y="22.91922"/></text>
<text style="font-style:normal;font-variant:normal;font-weight:normal;font-stretch:normal;font-size:12.5px;line-height:125%;font-family:sans-serif;text-align:start;letter-spacing:0px;word-spacing:0px;writing-mode:lr-tb;text-anchor:start;fill:#ffffff;fill-opacity:1;stroke:none;stroke-width:1px;stroke-linecap:butt;stroke-linejoin:miter;stroke-opacity:1" x="23.172668" y="19.871628" id="text4405"><tspan sodipodi:role="line" id="tspan4407" x="23.172668" y="19.871628">Download File</tspan></text>
<path sodipodi:type="star" style="fill:#00c9ff;fill-opacity:0" id="path4477" sodipodi:cx="9.6099548" sodipodi:cy="14.73713" d="m 13.890019,18.128879 -3.545552,-0.761878 -2.6376446,2.48882 -0.3710464,-3.607453 -3.1820859,-1.739462 3.3162327,-1.46765 0.6710074,-3.5638671 2.4205908,2.7003961 3.596791,-0.46313 -1.820225,3.136587 z"/><path sodipodi:type="star" style="fill:#00c9ff;fill-opacity:0" id="path4479" sodipodi:cx="9.5291996" sodipodi:cy="9.9725304" d="M 14.778335,9.7302626 11.72372,11.417213 11.381682,14.88989 8.8333688,12.506075 5.4249614,13.253893 6.904632,10.093664 5.1401585,7.0831648 8.6029584,7.5138507 10.920861,4.9054412 11.581319,8.3318488 Z"/><path sodipodi:type="star" style="fill:#00c9ff;fill-opacity:0" id="path4483" sodipodi:cx="8.479372" sodipodi:cy="15.706201" d="M 13.728507,16.029224 7.8067019,15.716451 9.7942302,20.798245 8.2617569,15.069621 4.0428637,18.530233 9.0175486,15.302522 4.4226009,12.359505 9.0295986,16.093294 10.408658,10.813796 8.2812541,16.349115 Z"/><rect style="fill:#f6ffd5;fill-opacity:0" id="rect4517" width="9.3676872" height="3.0687244" x="7.7525692" y="20.71307"/><rect style="fill:#f6ffd5;fill-opacity:0" id="rect4519" width="9.3676872" height="4.6838436" x="6.7027421" y="20.147778"/><rect style="fill:#f6ffd5;fill-opacity:0" id="rect4524" width="8.5601282" height="2.3419218" x="9.2061758" y="19.986265"/><rect style="fill:#f6ffd5;fill-opacity:0" id="rect4526" width="7.1065216" height="3.1494811" x="10.094491" y="19.66324"/><path id="path1316" d="m 17.607295,15.75204 -3.469894,3.086587 -3.470431,-3.098561 9.27e-4,-1.716738 2.683951,2.372117 9.46e-4,-4.917903 1.543596,0.0013 2.83e-4,4.948746 2.710708,-2.397622 0,1.721849 z" style="fill:#ffffff;fill-opacity:1;fill-rule:evenodd;stroke:#000000;stroke-width:0.01313184px;stroke-linecap:butt;stroke-linejoin:miter;stroke-opacity:1"/><rect style="fill:#ffffff;fill-opacity:1" id="rect4615" width="7.8754096" height="1.8188066" x="9.9449806" y="18.807499" ry="0.50173986"/></svg>
